<?xml version="1.0" encoding="UTF-8"?> <svg xmlns="http://www.w3.org/2000/svg" width="34" height="34" viewBox="0 0 34 34" fill="none"><path d="M30.3459 15.473C30.5995 15.3611 30.8148 15.1773 30.9649 14.9443C31.1151 14.7113 31.1936 14.4394 31.1907 14.1622C31.1879 13.885 31.1037 13.6148 30.9488 13.385C30.7939 13.1551 30.5749 12.9758 30.319 12.8692L18.1768 7.33851C17.8076 7.17014 17.4067 7.08301 17.0009 7.08301C16.5952 7.08301 16.1942 7.17014 15.8251 7.33851L3.68427 12.8635C3.43206 12.974 3.2175 13.1555 3.06684 13.386C2.91617 13.6165 2.83594 13.8858 2.83594 14.1612C2.83594 14.4365 2.91617 14.7059 3.06684 14.9364C3.2175 15.1668 3.43206 15.3484 3.68427 15.4588L15.8251 20.9952C16.1942 21.1636 16.5952 21.2507 17.0009 21.2507C17.4067 21.2507 17.8076 21.1636 18.1768 20.9952L30.3459 15.473Z" stroke="#FF4A03" stroke-width="2" stroke-linecap="round" stroke-linejoin="round"></path><path d="M31.168 14.167V22.667" stroke="#FF4A03" stroke-width="2" stroke-linecap="round" stroke-linejoin="round"></path><path d="M8.5 17.708V22.6663C8.5 23.7935 9.39553 24.8745 10.9896 25.6715C12.5837 26.4686 14.7457 26.9163 17 26.9163C19.2543 26.9163 21.4163 26.4686 23.0104 25.6715C24.6045 24.8745 25.5 23.7935 25.5 22.6663V17.708" stroke="#FF4A03" stroke-width="2" stroke-linecap="round" stroke-linejoin="round"></path></svg> 