<?xml version="1.0" encoding="UTF-8"?> <svg xmlns="http://www.w3.org/2000/svg" width="24" height="24" viewBox="0 0 24 24" fill="none"><path d="M12.127 22H5C4.46957 22 3.96086 21.7893 3.58579 21.4142C3.21071 21.0391 3 20.5304 3 20V6C3 5.46957 3.21071 4.96086 3.58579 4.58579C3.96086 4.21071 4.46957 4 5 4H19C19.5304 4 20.0391 4.21071 20.4142 4.58579C20.7893 4.96086 21 5.46957 21 6V11.125" stroke="#FF4A03" stroke-width="2" stroke-linecap="round" stroke-linejoin="round"></path><path d="M16 2V6" stroke="#FF4A03" stroke-width="2" stroke-linecap="round" stroke-linejoin="round"></path><path d="M3 10H21" stroke="#FF4A03" stroke-width="2" stroke-linecap="round" stroke-linejoin="round"></path><path d="M8 2V6" stroke="#FF4A03" stroke-width="2" stroke-linecap="round" stroke-linejoin="round"></path><path d="M18.4365 15.3219C18.4756 15.202 18.552 15.0976 18.6546 15.0242C18.7572 14.9507 18.8806 14.9119 19.0068 14.9135C19.1329 14.9151 19.2553 14.9569 19.356 15.033C19.4567 15.109 19.5305 15.2152 19.5666 15.3362L20.0029 16.1957C20.0453 16.2793 20.107 16.3515 20.1829 16.4066C20.2587 16.4617 20.3466 16.4979 20.4392 16.5124L21.4064 16.6639C21.531 16.6644 21.6522 16.7042 21.7529 16.7776C21.8535 16.851 21.9284 16.9542 21.967 17.0726C22.0056 17.1911 22.0058 17.3187 21.9676 17.4372C21.9295 17.5558 21.8549 17.6593 21.7545 17.733L21.0607 18.4245C20.9943 18.4906 20.9445 18.5716 20.9155 18.6607C20.8865 18.7498 20.879 18.8446 20.8938 18.9371L21.0471 19.892C21.0893 20.0116 21.0919 20.1417 21.0545 20.263C21.0172 20.3843 20.9419 20.4903 20.8397 20.5655C20.7375 20.6407 20.6138 20.6811 20.4869 20.6807C20.36 20.6803 20.2366 20.6391 20.1349 20.5633L19.2676 20.1193C19.1841 20.0765 19.0916 20.0542 18.9977 20.0542C18.9038 20.0542 18.8113 20.0765 18.7278 20.1193L17.8605 20.5633C17.7588 20.6385 17.6357 20.6792 17.5092 20.6793C17.3826 20.6795 17.2594 20.6391 17.1575 20.5641C17.0556 20.4891 16.9805 20.3834 16.943 20.2625C16.9056 20.1417 16.9078 20.012 16.9495 19.8926L17.1022 18.9377C17.117 18.8451 17.1095 18.7504 17.0805 18.6613C17.0515 18.5722 17.0017 18.4912 16.9353 18.4251L16.2509 17.7425C16.1472 17.6706 16.0691 17.5674 16.0281 17.4479C15.9871 17.3285 15.9854 17.1991 16.0233 17.0786C16.0611 16.9581 16.1365 16.8529 16.2383 16.7783C16.3402 16.7037 16.4633 16.6636 16.5896 16.6639L17.5562 16.5124C17.6488 16.4979 17.7367 16.4617 17.8125 16.4066C17.8884 16.3515 17.9501 16.2793 17.9925 16.1957L18.4365 15.3219Z" stroke="#FF4A03" stroke-width="1.5" stroke-linecap="round" stroke-linejoin="round"></path></svg> 