<?xml version="1.0" encoding="UTF-8"?> <svg xmlns="http://www.w3.org/2000/svg" width="18" height="18" viewBox="0 0 18 18" fill="none"><path d="M14.13 9.1875L15.42 7.905H15.405C16.0955 7.18953 16.4738 6.22929 16.4569 5.23513C16.4401 4.24096 16.0294 3.29412 15.315 2.6025C14.6152 1.92764 13.6809 1.55054 12.7087 1.55054C11.7366 1.55054 10.8023 1.92764 10.1025 2.6025L8.8125 3.885" stroke="#E05555" stroke-width="1.125" stroke-linecap="round" stroke-linejoin="round"></path><path d="M3.87794 8.8125L2.59544 10.095C1.90497 10.8105 1.52664 11.7707 1.54351 12.7649C1.56038 13.759 1.97109 14.7059 2.68544 15.3975C3.38523 16.0724 4.31951 16.4495 5.29169 16.4495C6.26387 16.4495 7.19815 16.0724 7.89794 15.3975L9.18044 14.115" stroke="#E05555" stroke-width="1.125" stroke-linecap="round" stroke-linejoin="round"></path><path d="M6 1.5V3.75" stroke="#E05555" stroke-width="1.125" stroke-linecap="round" stroke-linejoin="round"></path><path d="M1.5 6H3.75" stroke="#E05555" stroke-width="1.125" stroke-linecap="round" stroke-linejoin="round"></path><path d="M12 14.25V16.5" stroke="#E05555" stroke-width="1.125" stroke-linecap="round" stroke-linejoin="round"></path><path d="M14.25 12H16.5" stroke="#E05555" stroke-width="1.125" stroke-linecap="round" stroke-linejoin="round"></path></svg> 